<svg width="48" height="48" viewBox="0 0 48 48" fill="none" xmlns="http://www.w3.org/2000/svg">
<path d="M40.9705 7.02938C36.4375 2.49647 30.4106 0 24 0C17.5893 0 11.5623 2.49647 7.02938 7.02938C2.49638 11.5624 0 17.5894 0 24C0 30.4106 2.49638 36.4375 7.02938 40.9705C11.5624 45.5035 17.5893 48 24 48C30.4106 48 36.4375 45.5035 40.9705 40.9705C45.5035 36.4375 48 30.4106 48 24C48 17.5894 45.5035 11.5625 40.9705 7.02938ZM24 45.1875C12.3172 45.1875 2.8125 35.6828 2.8125 24C2.8125 12.3172 12.3172 2.8125 24 2.8125C35.6828 2.8125 45.1875 12.3172 45.1875 24C45.1875 35.6828 35.6828 45.1875 24 45.1875Z" fill="#4F7693"/>
<path d="M35.4661 16.2989C34.917 15.7499 34.0266 15.7499 33.4775 16.299L21.0594 28.7171L14.5225 22.1802C13.9734 21.6311 13.083 21.6311 12.5338 22.1802C11.9846 22.7293 11.9846 23.6197 12.5338 24.1689L20.065 31.7001C20.3396 31.9747 20.6995 32.1119 21.0593 32.1119C21.4192 32.1119 21.7792 31.9746 22.0537 31.7001L35.4661 18.2877C36.0153 17.7386 36.0153 16.8481 35.4661 16.2989Z" fill="#4F7693"/>
</svg>
