<svg width="44" height="44" viewBox="0 0 44 44" fill="none" xmlns="http://www.w3.org/2000/svg">
<g clip-path="url(#clip0)">
<path d="M43.9569 12.9361C43.8539 10.5982 43.4758 8.99095 42.9342 7.59822C42.3755 6.11988 41.516 4.79632 40.3898 3.69603C39.2895 2.57863 37.9573 1.71036 36.496 1.16038C35.0952 0.618804 33.4964 0.240739 31.1585 0.137661C28.8031 0.0258534 28.0554 0 22.0816 0C16.1077 0 15.36 0.0258534 13.0134 0.128931C10.6755 0.232009 9.06822 0.61041 7.67583 1.15165C6.19715 1.71036 4.87359 2.5699 3.7733 3.69603C2.6559 4.79632 1.78796 6.12861 1.23765 7.58983C0.696074 8.99095 0.31801 10.5895 0.214932 12.9274C0.103124 15.2827 0.0772705 16.0305 0.0772705 22.0043C0.0772705 27.9781 0.103124 28.7259 0.206202 31.0725C0.30928 33.4104 0.68768 35.0176 1.22926 36.4104C1.78796 37.8887 2.6559 39.2123 3.7733 40.3126C4.87359 41.43 6.20588 42.2982 7.6671 42.8482C9.06822 43.3898 10.6668 43.7679 13.005 43.8709C15.3513 43.9743 16.0993 43.9999 22.0732 43.9999C28.047 43.9999 28.7947 43.9743 31.1414 43.8709C33.4792 43.7679 35.0865 43.3898 36.4789 42.8482C39.4359 41.705 41.7738 39.3671 42.9171 36.4104C43.4583 35.0092 43.8367 33.4104 43.9398 31.0725C44.0429 28.7259 44.0687 27.9781 44.0687 22.0043C44.0687 16.0305 44.06 15.2827 43.9569 12.9361ZM39.9946 30.9006C39.9 33.0494 39.539 34.2098 39.2382 34.9834C38.4988 36.9002 36.9775 38.4216 35.0607 39.1609C34.2871 39.4617 33.1183 39.8227 30.9778 39.917C28.6571 40.0205 27.961 40.046 22.0903 40.046C16.2196 40.046 15.5148 40.0205 13.2024 39.917C11.0536 39.8227 9.89318 39.4617 9.11959 39.1609C8.1657 38.8084 7.29743 38.2497 6.59267 37.519C5.86206 36.8056 5.30336 35.946 4.95081 34.9921C4.64997 34.2185 4.28903 33.0494 4.19468 30.9093C4.09127 28.5885 4.06575 27.8922 4.06575 22.0214C4.06575 16.1507 4.09127 15.4459 4.19468 13.1339C4.28903 10.985 4.64997 9.82464 4.95081 9.05105C5.30336 8.09683 5.86206 7.22889 6.6014 6.5238C7.31455 5.79318 8.1741 5.23448 9.12832 4.88227C9.90191 4.58143 11.071 4.22049 13.2112 4.12581C15.5319 4.02273 16.2283 3.99687 22.0987 3.99687C27.9782 3.99687 28.6742 4.02273 30.9866 4.12581C33.1354 4.22049 34.2958 4.58143 35.0694 4.88227C36.0233 5.23448 36.8916 5.79318 37.5963 6.5238C38.3269 7.23728 38.8856 8.09683 39.2382 9.05105C39.539 9.82464 39.9 10.9934 39.9946 13.1339C40.0977 15.4546 40.1236 16.1507 40.1236 22.0214C40.1236 27.8922 40.0977 28.5798 39.9946 30.9006Z" fill="#1A2646"/>
<path d="M22.0816 10.7012C15.8415 10.7012 10.7786 15.7637 10.7786 22.0042C10.7786 28.2446 15.8415 33.3072 22.0816 33.3072C28.322 33.3072 33.3846 28.2446 33.3846 22.0042C33.3846 15.7637 28.322 10.7012 22.0816 10.7012ZM22.0816 29.3361C18.0333 29.3361 14.7496 26.0527 14.7496 22.0042C14.7496 17.9556 18.0333 14.6722 22.0816 14.6722C26.1302 14.6722 29.4135 17.9556 29.4135 22.0042C29.4135 26.0527 26.1302 29.3361 22.0816 29.3361Z" fill="#1A2646"/>
<path d="M36.4705 10.2545C36.4705 11.7116 35.289 12.8932 33.8315 12.8932C32.3743 12.8932 31.1927 11.7116 31.1927 10.2545C31.1927 8.79692 32.3743 7.61572 33.8315 7.61572C35.289 7.61572 36.4705 8.79692 36.4705 10.2545Z" fill="#1A2646"/>
</g>
<defs>
<clipPath id="clip0">
<rect width="44" height="44" fill="white"/>
</clipPath>
</defs>
</svg>
