<svg width="90" height="96" viewBox="0 0 90 96" fill="none" xmlns="http://www.w3.org/2000/svg">
<path d="M1 86.41C1 86.2367 1.03667 86.11 1.11 86.03C1.19 85.95 1.30667 85.91 1.46 85.91H3.51C4.99 85.91 5.73 86.5033 5.73 87.69C5.73 88.0233 5.62667 88.3367 5.42 88.63C5.22 88.9167 4.94667 89.1033 4.6 89.19V89.24C5.10667 89.3267 5.48333 89.52 5.73 89.82C5.97667 90.1133 6.1 90.4667 6.1 90.88C6.1 91.6867 5.83667 92.2433 5.31 92.55C4.79 92.85 4.20667 93 3.56 93H1.46C1.30667 93 1.19 92.96 1.11 92.88C1.03667 92.8 1 92.6733 1 92.5V86.41ZM2.08 89.02H3.23C3.44333 89.02 3.65333 88.9767 3.86 88.89C4.07333 88.7967 4.25 88.65 4.39 88.45C4.53 88.2433 4.6 87.98 4.6 87.66C4.6 87.2267 4.45 86.9167 4.15 86.73C3.85 86.5367 3.51667 86.44 3.15 86.44H2.08V89.02ZM2.08 92.47H3.42C3.81333 92.47 4.17 92.3567 4.49 92.13C4.81 91.8967 4.97 91.5133 4.97 90.98C4.97 90.6467 4.88667 90.3733 4.72 90.16C4.55333 89.9467 4.34333 89.7933 4.09 89.7C3.83667 89.6 3.58 89.55 3.32 89.55H2.08V92.47ZM9.68922 93C8.96255 93 8.39922 92.79 7.99922 92.37C7.59922 91.95 7.39922 91.3233 7.39922 90.49C7.39922 89.6433 7.60255 89.0133 8.00922 88.6C8.41589 88.1867 8.97589 87.98 9.68922 87.98C10.4026 87.98 10.9626 88.1867 11.3692 88.6C11.7759 89.0133 11.9792 89.6433 11.9792 90.49C11.9792 91.3233 11.7792 91.95 11.3792 92.37C10.9792 92.79 10.4159 93 9.68922 93ZM9.68922 92.6C10.0826 92.6 10.3826 92.45 10.5892 92.15C10.7959 91.8433 10.8992 91.29 10.8992 90.49C10.8992 89.7033 10.7926 89.1567 10.5792 88.85C10.3659 88.5367 10.0692 88.38 9.68922 88.38C9.31589 88.38 9.01922 88.5367 8.79922 88.85C8.58589 89.1633 8.47922 89.71 8.47922 90.49C8.47922 91.2833 8.58255 91.8333 8.78922 92.14C8.99589 92.4467 9.29589 92.6 9.68922 92.6ZM13.8154 92.01C13.9087 92.2167 14.0321 92.3667 14.1854 92.46C14.3387 92.5533 14.5854 92.6 14.9254 92.6C15.6321 92.6 15.9854 92.25 15.9854 91.55C15.9854 91.2167 15.8687 90.9833 15.6354 90.85C15.4087 90.71 15.1254 90.64 14.7854 90.64H14.1854C14.1187 90.64 14.0687 90.6167 14.0354 90.57C14.0087 90.5167 13.9954 90.4567 13.9954 90.39C13.9954 90.25 14.0587 90.18 14.1854 90.18H14.8054C15.1187 90.18 15.3621 90.0967 15.5354 89.93C15.7087 89.7633 15.7954 89.5233 15.7954 89.21C15.7954 88.9567 15.7154 88.7567 15.5554 88.61C15.4021 88.4567 15.1921 88.38 14.9254 88.38C14.6921 88.38 14.5021 88.43 14.3554 88.53C14.2154 88.63 14.0987 88.76 14.0054 88.92C13.9321 89.0467 13.8521 89.1433 13.7654 89.21C13.6854 89.27 13.5787 89.3 13.4454 89.3C13.3454 89.3 13.2587 89.2667 13.1854 89.2C13.1187 89.1333 13.0854 89.0467 13.0854 88.94C13.0854 88.7933 13.1321 88.67 13.2254 88.57C13.3254 88.4633 13.4587 88.3633 13.6254 88.27C13.7721 88.19 13.9754 88.1233 14.2354 88.07C14.4954 88.01 14.7287 87.98 14.9354 87.98C16.2087 87.98 16.8454 88.38 16.8454 89.18C16.8454 89.46 16.7554 89.7067 16.5754 89.92C16.4021 90.1333 16.1321 90.28 15.7654 90.36V90.4C16.1587 90.4267 16.4687 90.5433 16.6954 90.75C16.9221 90.95 17.0354 91.21 17.0354 91.53C17.0354 91.9833 16.8454 92.3433 16.4654 92.61C16.0854 92.87 15.5154 93 14.7554 93C14.4754 93 14.2121 92.97 13.9654 92.91C13.7254 92.8433 13.5254 92.76 13.3654 92.66C13.2121 92.56 13.0921 92.46 13.0054 92.36C12.9187 92.2533 12.8754 92.1267 12.8754 91.98C12.8754 91.8733 12.9154 91.7867 12.9954 91.72C13.0821 91.6467 13.1721 91.61 13.2654 91.61C13.5121 91.61 13.6954 91.7433 13.8154 92.01ZM18.2315 92.53C18.4582 92.23 18.6248 91.8467 18.7315 91.38C18.8448 90.9133 18.9015 90.2667 18.9015 89.44V88.45C18.9015 88.29 18.9315 88.1733 18.9915 88.1C19.0515 88.02 19.1582 87.98 19.3115 87.98H21.8015C21.9548 87.98 22.0582 88.02 22.1115 88.1C22.1715 88.1733 22.2015 88.29 22.2015 88.45V92.53H22.6415C22.8548 92.53 22.9615 92.6333 22.9615 92.84V93.77C22.9615 93.91 22.9348 94.0133 22.8815 94.08C22.8282 94.1533 22.7315 94.19 22.5915 94.19C22.3782 94.19 22.2315 94.1467 22.1515 94.06C22.0782 93.98 22.0415 93.81 22.0415 93.55V93H18.5415V93.55C18.5415 93.81 18.5015 93.98 18.4215 94.06C18.3482 94.1467 18.2048 94.19 17.9915 94.19C17.8515 94.19 17.7548 94.1533 17.7015 94.08C17.6482 94.0133 17.6215 93.91 17.6215 93.77V92.84C17.6215 92.6333 17.7282 92.53 17.9415 92.53H18.2315ZM21.1615 88.45H19.5615V89.44C19.5615 90.18 19.5148 90.7867 19.4215 91.26C19.3282 91.7333 19.1782 92.1567 18.9715 92.53H21.1615V88.45ZM26.5451 92.92C26.2917 93.5667 25.9984 94.1067 25.6651 94.54C25.3384 94.98 24.9484 95.2 24.4951 95.2C24.3617 95.2 24.2484 95.1633 24.1551 95.09C24.0617 95.0233 24.0151 94.94 24.0151 94.84C24.0151 94.54 24.1951 94.39 24.5551 94.39C24.9484 94.39 25.2351 94.2667 25.4151 94.02C25.5617 93.8133 25.7017 93.5033 25.8351 93.09L23.8551 88.48C23.8217 88.4067 23.8051 88.33 23.8051 88.25C23.8051 88.07 23.9284 87.98 24.1751 87.98C24.3417 87.98 24.4951 88.0367 24.6351 88.15C24.7817 88.2567 24.9017 88.4233 24.9951 88.65L26.3051 91.92H26.3551L26.9551 90.17C27.1151 89.7033 27.2484 89.2633 27.3551 88.85L27.4251 88.61C27.4784 88.4167 27.5484 88.2633 27.6351 88.15C27.7217 88.0367 27.8451 87.98 28.0051 87.98C28.0984 87.98 28.1751 88 28.2351 88.04C28.2951 88.0733 28.3251 88.13 28.3251 88.21C28.3251 88.29 28.3084 88.38 28.2751 88.48L26.5451 92.92ZM30.0223 93C29.8689 93 29.7623 92.9633 29.7023 92.89C29.6489 92.81 29.6223 92.69 29.6223 92.53V88.45C29.6223 88.29 29.6489 88.1733 29.7023 88.1C29.7623 88.02 29.8689 87.98 30.0223 87.98C30.2489 87.98 30.4123 88.0433 30.5123 88.17C30.6123 88.2967 30.6623 88.5067 30.6623 88.8V92.53H32.2123V88.61C32.2123 88.3633 32.2523 88.1967 32.3323 88.11C32.4189 88.0233 32.5489 87.98 32.7223 87.98C32.9089 87.98 33.0423 88.0233 33.1223 88.11C33.2023 88.1967 33.2423 88.3633 33.2423 88.61V92.53H34.7923V88.69C34.7923 88.4033 34.8389 88.2133 34.9323 88.12C35.0323 88.0267 35.1989 87.98 35.4323 87.98C35.5856 87.98 35.6889 88.02 35.7423 88.1C35.8023 88.1733 35.8323 88.29 35.8323 88.45V92.53C35.8323 92.69 35.8023 92.81 35.7423 92.89C35.6889 92.9633 35.5856 93 35.4323 93H30.0223ZM41.9048 92.53C41.9048 92.69 41.8748 92.81 41.8148 92.89C41.7614 92.9633 41.6581 93 41.5048 93C41.2781 93 41.1148 92.9367 41.0148 92.81C40.9148 92.6833 40.8648 92.4733 40.8648 92.18V90.67H38.6748V92.29C38.6748 92.5767 38.6248 92.7667 38.5248 92.86C38.4314 92.9533 38.2681 93 38.0348 93C37.8814 93 37.7748 92.9633 37.7148 92.89C37.6614 92.81 37.6348 92.69 37.6348 92.53V88.45C37.6348 88.29 37.6614 88.1733 37.7148 88.1C37.7748 88.02 37.8814 87.98 38.0348 87.98C38.2614 87.98 38.4248 88.0433 38.5248 88.17C38.6248 88.2967 38.6748 88.5067 38.6748 88.8V90.18H40.8648V88.7C40.8648 88.4133 40.9114 88.2233 41.0048 88.13C41.1048 88.03 41.2714 87.98 41.5048 87.98C41.6581 87.98 41.7614 88.02 41.8148 88.1C41.8748 88.1733 41.9048 88.29 41.9048 88.45V92.53ZM46.6039 92.05C46.3839 92.3767 46.1306 92.6167 45.8439 92.77C45.5639 92.9233 45.2306 93 44.8439 93C44.3506 93 43.9739 92.88 43.7139 92.64C43.4606 92.3933 43.3339 92.0633 43.3339 91.65C43.3339 91.1433 43.5206 90.7267 43.8939 90.4C44.2739 90.0667 44.9272 89.9 45.8539 89.9H46.5839V89.62C46.5839 89.1667 46.5039 88.8467 46.3439 88.66C46.1906 88.4733 45.9372 88.38 45.5839 88.38C45.2506 88.38 44.9572 88.52 44.7039 88.8C44.4906 89.0333 44.2872 89.15 44.0939 89.15C43.9806 89.15 43.8939 89.12 43.8339 89.06C43.7739 88.9933 43.7439 88.91 43.7439 88.81C43.7439 88.6833 43.7906 88.5767 43.8839 88.49C43.9772 88.4033 44.1139 88.3233 44.2939 88.25C44.5072 88.1633 44.7472 88.0967 45.0139 88.05C45.2872 88.0033 45.5439 87.98 45.7839 87.98C46.2639 87.98 46.6372 88.0467 46.9039 88.18C47.1772 88.3133 47.3672 88.51 47.4739 88.77C47.5806 89.03 47.6339 89.37 47.6339 89.79V92.53C47.6339 92.69 47.6072 92.81 47.5539 92.89C47.5006 92.9633 47.3972 93 47.2439 93C47.0239 93 46.8672 92.9267 46.7739 92.78C46.6806 92.6267 46.6339 92.3867 46.6339 92.06L46.6039 92.05ZM46.0139 90.32C44.9206 90.32 44.3739 90.7167 44.3739 91.51C44.3739 92.0567 44.6639 92.33 45.2439 92.33C45.4239 92.33 45.6172 92.2867 45.8239 92.2C46.0372 92.1067 46.2172 91.9733 46.3639 91.8C46.5172 91.62 46.5939 91.4067 46.5939 91.16V90.32H46.0139ZM48.8629 92.81C48.8629 92.7367 48.9229 92.63 49.0429 92.49L50.5029 90.82C50.0762 90.78 49.7362 90.6367 49.4829 90.39C49.2296 90.1367 49.1029 89.8433 49.1029 89.51C49.1029 89.03 49.2629 88.6567 49.5829 88.39C49.9096 88.1167 50.3896 87.98 51.0229 87.98H52.5729C52.7262 87.98 52.8296 88.02 52.8829 88.1C52.9429 88.1733 52.9729 88.29 52.9729 88.45V92.53C52.9729 92.69 52.9429 92.81 52.8829 92.89C52.8296 92.9633 52.7262 93 52.5729 93C52.3462 93 52.1829 92.9367 52.0829 92.81C51.9829 92.6833 51.9329 92.4733 51.9329 92.18V90.87H51.5229L50.1029 92.69C50.0162 92.8033 49.9229 92.8833 49.8229 92.93C49.7229 92.9767 49.5629 93 49.3429 93C49.1429 93 49.0129 92.9833 48.9529 92.95C48.8929 92.9167 48.8629 92.87 48.8629 92.81ZM50.1529 89.52C50.1529 89.7867 50.2496 90.0033 50.4429 90.17C50.6362 90.3367 50.8996 90.42 51.2329 90.42H51.9329V88.43H51.2229C50.8829 88.43 50.6196 88.53 50.4329 88.73C50.2462 88.9233 50.1529 89.1867 50.1529 89.52ZM61.3958 91.74C61.4624 91.6667 61.5458 91.63 61.6458 91.63C61.7058 91.63 61.7591 91.65 61.8058 91.69C61.8524 91.73 61.8758 91.78 61.8758 91.84C61.8758 91.96 61.8324 92.0733 61.7458 92.18C61.3058 92.7267 60.7024 93 59.9358 93C59.1424 93 58.5658 92.7767 58.2058 92.33C57.8524 91.8833 57.6758 91.2733 57.6758 90.5C57.6758 89.6267 57.8924 88.99 58.3258 88.59C58.7591 88.1833 59.3324 87.98 60.0458 87.98C60.4858 87.98 60.8758 88.08 61.2158 88.28C61.5824 88.5 61.7658 88.7567 61.7658 89.05C61.7658 89.17 61.7224 89.2667 61.6358 89.34C61.5491 89.4067 61.4524 89.44 61.3458 89.44C61.1991 89.44 61.0824 89.4067 60.9958 89.34C60.9158 89.2667 60.8524 89.16 60.8058 89.02C60.7391 88.8267 60.6458 88.6733 60.5258 88.56C60.4124 88.44 60.2458 88.38 60.0258 88.38C59.5924 88.38 59.2724 88.54 59.0658 88.86C58.8591 89.1733 58.7558 89.72 58.7558 90.5C58.7558 91.1867 58.8524 91.7033 59.0458 92.05C59.2458 92.39 59.5791 92.56 60.0458 92.56C60.3591 92.56 60.6058 92.4967 60.7858 92.37C60.9658 92.2433 61.1058 92.1167 61.2058 91.99C61.3058 91.8567 61.3691 91.7733 61.3958 91.74ZM64.4481 90.13L66.1981 88.39C66.3515 88.2433 66.4815 88.14 66.5881 88.08C66.7015 88.0133 66.8181 87.98 66.9381 87.98C67.0315 87.98 67.1015 88.0033 67.1481 88.05C67.1948 88.0967 67.2181 88.1567 67.2181 88.23C67.2181 88.35 67.1715 88.4567 67.0781 88.55C66.9848 88.6433 66.8281 88.7633 66.6081 88.91C66.3881 89.05 66.1681 89.2133 65.9481 89.4C65.7015 89.6133 65.4815 89.8133 65.2881 90L65.1081 90.17L67.0781 92.49C67.1981 92.63 67.2581 92.7367 67.2581 92.81C67.2581 92.87 67.2281 92.9167 67.1681 92.95C67.1081 92.9833 66.9781 93 66.7781 93C66.5581 93 66.3981 92.9767 66.2981 92.93C66.1981 92.8833 66.1048 92.8033 66.0181 92.69L64.3581 90.6H64.1181V92.29C64.1181 92.5767 64.0681 92.7667 63.9681 92.86C63.8748 92.9533 63.7115 93 63.4781 93C63.3248 93 63.2181 92.9633 63.1581 92.89C63.1048 92.81 63.0781 92.69 63.0781 92.53V88.45C63.0781 88.29 63.1048 88.1733 63.1581 88.1C63.2181 88.02 63.3248 87.98 63.4781 87.98C63.7048 87.98 63.8681 88.0433 63.9681 88.17C64.0681 88.2967 64.1181 88.5067 64.1181 88.8V90.13H64.4481ZM71.3539 92.05C71.1339 92.3767 70.8806 92.6167 70.5939 92.77C70.3139 92.9233 69.9806 93 69.5939 93C69.1006 93 68.7239 92.88 68.4639 92.64C68.2106 92.3933 68.0839 92.0633 68.0839 91.65C68.0839 91.1433 68.2706 90.7267 68.6439 90.4C69.0239 90.0667 69.6772 89.9 70.6039 89.9H71.3339V89.62C71.3339 89.1667 71.2539 88.8467 71.0939 88.66C70.9406 88.4733 70.6872 88.38 70.3339 88.38C70.0006 88.38 69.7072 88.52 69.4539 88.8C69.2406 89.0333 69.0372 89.15 68.8439 89.15C68.7306 89.15 68.6439 89.12 68.5839 89.06C68.5239 88.9933 68.4939 88.91 68.4939 88.81C68.4939 88.6833 68.5406 88.5767 68.6339 88.49C68.7272 88.4033 68.8639 88.3233 69.0439 88.25C69.2572 88.1633 69.4972 88.0967 69.7639 88.05C70.0372 88.0033 70.2939 87.98 70.5339 87.98C71.0139 87.98 71.3872 88.0467 71.6539 88.18C71.9272 88.3133 72.1172 88.51 72.2239 88.77C72.3306 89.03 72.3839 89.37 72.3839 89.79V92.53C72.3839 92.69 72.3572 92.81 72.3039 92.89C72.2506 92.9633 72.1472 93 71.9939 93C71.7739 93 71.6172 92.9267 71.5239 92.78C71.4306 92.6267 71.3839 92.3867 71.3839 92.06L71.3539 92.05ZM70.7639 90.32C69.6706 90.32 69.1239 90.7167 69.1239 91.51C69.1239 92.0567 69.4139 92.33 69.9939 92.33C70.1739 92.33 70.3672 92.2867 70.5739 92.2C70.7872 92.1067 70.9672 91.9733 71.1139 91.8C71.2672 91.62 71.3439 91.4067 71.3439 91.16V90.32H70.7639ZM74.4529 92.01C74.5462 92.2167 74.6696 92.3667 74.8229 92.46C74.9762 92.5533 75.2229 92.6 75.5629 92.6C76.2696 92.6 76.6229 92.25 76.6229 91.55C76.6229 91.2167 76.5062 90.9833 76.2729 90.85C76.0462 90.71 75.7629 90.64 75.4229 90.64H74.8229C74.7562 90.64 74.7062 90.6167 74.6729 90.57C74.6462 90.5167 74.6329 90.4567 74.6329 90.39C74.6329 90.25 74.6962 90.18 74.8229 90.18H75.4429C75.7562 90.18 75.9996 90.0967 76.1729 89.93C76.3462 89.7633 76.4329 89.5233 76.4329 89.21C76.4329 88.9567 76.3529 88.7567 76.1929 88.61C76.0396 88.4567 75.8296 88.38 75.5629 88.38C75.3296 88.38 75.1396 88.43 74.9929 88.53C74.8529 88.63 74.7362 88.76 74.6429 88.92C74.5696 89.0467 74.4896 89.1433 74.4029 89.21C74.3229 89.27 74.2162 89.3 74.0829 89.3C73.9829 89.3 73.8962 89.2667 73.8229 89.2C73.7562 89.1333 73.7229 89.0467 73.7229 88.94C73.7229 88.7933 73.7696 88.67 73.8629 88.57C73.9629 88.4633 74.0962 88.3633 74.2629 88.27C74.4096 88.19 74.6129 88.1233 74.8729 88.07C75.1329 88.01 75.3662 87.98 75.5729 87.98C76.8462 87.98 77.4829 88.38 77.4829 89.18C77.4829 89.46 77.3929 89.7067 77.2129 89.92C77.0396 90.1333 76.7696 90.28 76.4029 90.36V90.4C76.7962 90.4267 77.1062 90.5433 77.3329 90.75C77.5596 90.95 77.6729 91.21 77.6729 91.53C77.6729 91.9833 77.4829 92.3433 77.1029 92.61C76.7229 92.87 76.1529 93 75.3929 93C75.1129 93 74.8496 92.97 74.6029 92.91C74.3629 92.8433 74.1629 92.76 74.0029 92.66C73.8496 92.56 73.7296 92.46 73.6429 92.36C73.5562 92.2533 73.5129 92.1267 73.5129 91.98C73.5129 91.8733 73.5529 91.7867 73.6329 91.72C73.7196 91.6467 73.8096 91.61 73.9029 91.61C74.1496 91.61 74.3329 91.7433 74.4529 92.01ZM80.429 90.13L82.179 88.39C82.3323 88.2433 82.4623 88.14 82.569 88.08C82.6823 88.0133 82.799 87.98 82.919 87.98C83.0123 87.98 83.0823 88.0033 83.129 88.05C83.1757 88.0967 83.199 88.1567 83.199 88.23C83.199 88.35 83.1523 88.4567 83.059 88.55C82.9657 88.6433 82.809 88.7633 82.589 88.91C82.369 89.05 82.149 89.2133 81.929 89.4C81.6823 89.6133 81.4623 89.8133 81.269 90L81.089 90.17L83.059 92.49C83.179 92.63 83.239 92.7367 83.239 92.81C83.239 92.87 83.209 92.9167 83.149 92.95C83.089 92.9833 82.959 93 82.759 93C82.539 93 82.379 92.9767 82.279 92.93C82.179 92.8833 82.0857 92.8033 81.999 92.69L80.339 90.6H80.099V92.29C80.099 92.5767 80.049 92.7667 79.949 92.86C79.8557 92.9533 79.6923 93 79.459 93C79.3057 93 79.199 92.9633 79.139 92.89C79.0857 92.81 79.059 92.69 79.059 92.53V88.45C79.059 88.29 79.0857 88.1733 79.139 88.1C79.199 88.02 79.3057 87.98 79.459 87.98C79.6857 87.98 79.849 88.0433 79.949 88.17C80.049 88.2967 80.099 88.5067 80.099 88.8V90.13H80.429ZM87.3348 92.05C87.1148 92.3767 86.8614 92.6167 86.5748 92.77C86.2948 92.9233 85.9614 93 85.5748 93C85.0814 93 84.7048 92.88 84.4448 92.64C84.1914 92.3933 84.0648 92.0633 84.0648 91.65C84.0648 91.1433 84.2514 90.7267 84.6248 90.4C85.0048 90.0667 85.6581 89.9 86.5848 89.9H87.3148V89.62C87.3148 89.1667 87.2348 88.8467 87.0748 88.66C86.9214 88.4733 86.6681 88.38 86.3148 88.38C85.9814 88.38 85.6881 88.52 85.4348 88.8C85.2214 89.0333 85.0181 89.15 84.8248 89.15C84.7114 89.15 84.6248 89.12 84.5648 89.06C84.5048 88.9933 84.4748 88.91 84.4748 88.81C84.4748 88.6833 84.5214 88.5767 84.6148 88.49C84.7081 88.4033 84.8448 88.3233 85.0248 88.25C85.2381 88.1633 85.4781 88.0967 85.7448 88.05C86.0181 88.0033 86.2748 87.98 86.5148 87.98C86.9948 87.98 87.3681 88.0467 87.6348 88.18C87.9081 88.3133 88.0981 88.51 88.2048 88.77C88.3114 89.03 88.3648 89.37 88.3648 89.79V92.53C88.3648 92.69 88.3381 92.81 88.2848 92.89C88.2314 92.9633 88.1281 93 87.9748 93C87.7548 93 87.5981 92.9267 87.5048 92.78C87.4114 92.6267 87.3648 92.3867 87.3648 92.06L87.3348 92.05ZM86.7448 90.32C85.6514 90.32 85.1048 90.7167 85.1048 91.51C85.1048 92.0567 85.3948 92.33 85.9748 92.33C86.1548 92.33 86.3481 92.2867 86.5548 92.2C86.7681 92.1067 86.9481 91.9733 87.0948 91.8C87.2481 91.62 87.3248 91.4067 87.3248 91.16V90.32H86.7448Z" fill="#003585"/>
<g clip-path="url(#clip0)">
<path d="M65.1024 84.0001C64.4127 84.0001 63.8537 83.4412 63.8537 82.7513C63.8537 81.5658 63.5018 81.0414 63.015 80.3158C62.4526 79.4776 61.7527 78.4345 61.7527 76.4887C61.7527 74.5428 62.4526 73.4995 63.015 72.6611C63.5018 71.9353 63.8537 71.411 63.8537 70.2251C63.8537 69.0394 63.5018 68.5149 63.015 67.7893C62.4526 66.9509 61.7527 65.9077 61.7527 63.9617C61.7527 62.0159 62.4526 60.9728 63.015 60.1346C63.5018 59.409 63.8537 58.8846 63.8537 57.6991C63.8537 57.0094 64.4127 56.4504 65.1024 56.4504C65.7921 56.4504 66.3512 57.0094 66.3512 57.6991C66.3512 59.6449 65.6514 60.688 65.089 61.5262C64.6022 62.2519 64.2503 62.7762 64.2503 63.9617C64.2503 65.1476 64.6022 65.6719 65.089 66.3979C65.6514 67.2361 66.3512 68.2793 66.3512 70.2251C66.3512 72.1711 65.6514 73.2143 65.089 74.0527C64.6022 74.7785 64.2503 75.3029 64.2503 76.4887C64.2503 77.6742 64.6022 78.1986 65.089 78.9242C65.6514 79.7624 66.3512 80.8055 66.3512 82.7513C66.3512 83.4412 65.7921 84.0001 65.1024 84.0001Z" fill="#FDD330"/>
<path d="M67.3325 59.543H62.4838C61.4968 59.543 60.7485 58.6525 60.9188 57.6803L62.0228 51.373H67.7937L68.8976 57.6803C69.0676 58.6527 68.3195 59.543 67.3325 59.543Z" fill="#1785F8"/>
<path d="M67.3323 59.5432H63.3187C64.305 59.5432 65.0544 58.653 64.8837 57.6798L63.7795 51.3735H67.7931L68.8973 57.6798C69.0681 58.6528 68.3186 59.5432 67.3323 59.5432Z" fill="#1576F7"/>
<path d="M81.3425 29.6359C81.3425 41.8558 73.9846 53.6684 64.9082 53.6684C55.8317 53.6684 48.4737 41.8558 48.4737 29.6359C48.4737 17.416 55.8317 9.4165 64.9082 9.4165C73.9846 9.4165 81.3425 17.416 81.3425 29.6359V29.6359Z" fill="#31A7FB"/>
<path d="M60.6145 52.7694C54.4439 50.1419 49.712 42.1015 48.683 33.2271C51.1606 31.2424 55.3381 29.1677 60.5146 31.497C67.6976 34.7291 68.1254 44.2163 60.6145 52.7694V52.7694Z" fill="#1C96F9"/>
<path d="M81.3424 29.6362C81.3424 41.8559 73.9851 53.6678 64.9086 53.6678C63.2475 53.6678 61.6444 53.2716 60.1324 52.5503C69.0382 52.2337 76.195 40.5759 76.195 28.5237C76.195 18.993 71.7189 12.0285 65.4425 9.42749C74.272 9.73248 81.3424 17.6569 81.3424 29.6362V29.6362Z" fill="#1C96F9"/>
<path d="M42.2067 83.6422C41.517 83.6422 40.958 83.0832 40.958 82.3935C40.958 80.4371 41.6617 79.388 42.2272 78.5451C42.7181 77.8132 43.0729 77.2844 43.0729 76.0884C43.0729 74.8922 42.7181 74.3635 42.2272 73.6316C41.6617 72.7886 40.958 71.7396 40.958 69.7833C40.958 67.8271 41.6617 66.7782 42.2272 65.9354C42.7181 65.2037 43.0729 64.6749 43.0729 63.4791C43.0729 62.7893 43.6319 62.2302 44.3216 62.2302C45.0113 62.2302 45.5703 62.7892 45.5703 63.4791C45.5703 65.4353 44.8666 66.4842 44.3011 67.327C43.8102 68.0587 43.4554 68.5875 43.4554 69.7833C43.4554 70.9793 43.8102 71.5081 44.3011 72.24C44.8666 73.083 45.5703 74.132 45.5703 76.0884C45.5703 78.0447 44.8666 79.0937 44.3011 79.9367C43.8102 80.6685 43.4554 81.1973 43.4554 82.3935C43.4555 83.0831 42.8964 83.6422 42.2067 83.6422V83.6422Z" fill="#1576F7"/>
<path d="M46.4492 64.6431H41.6005C40.6135 64.6431 39.8652 63.7526 40.0355 62.7804L41.1395 56.4731H46.9104L48.0143 62.7804C48.1845 63.7526 47.4362 64.6431 46.4492 64.6431Z" fill="#FB3A82"/>
<path d="M46.449 64.6428H41.9564C42.9443 64.6428 43.6921 63.7526 43.5214 62.7794L42.4189 56.4731H46.9099L48.014 62.7794C48.1847 63.7526 47.437 64.6428 46.449 64.6428Z" fill="#FB1466"/>
<path d="M58.3494 28.6109C52.7698 26.1001 48.3521 28.7057 45.9693 30.8008C44.86 31.7762 43.1901 31.7762 42.0808 30.8008C39.698 28.7057 35.2803 26.1001 29.7007 28.6109C19.6258 33.1446 22.8407 49.9833 42.6083 59.2886C43.5046 59.7106 44.5455 59.7106 45.4416 59.2886C65.2094 49.9833 68.4242 33.1446 58.3494 28.6109V28.6109Z" fill="#FC95BB"/>
<path d="M43.0186 31.3557C42.1328 33.9897 40.9424 36.4673 39.4872 38.6601C37.3509 41.8785 34.8101 44.2879 32.0279 45.7863L32.361 47.6895C32.6107 49.1114 32.2261 50.5599 31.3054 51.6722C22.0629 42.6979 22.0112 32.07 29.7004 28.6101C35.2798 26.0993 39.6972 28.705 42.0813 30.8014C42.3643 31.0493 42.6823 31.2341 43.0186 31.3557Z" fill="#FC78A8"/>
<path d="M45.441 59.2884C44.5459 59.7111 43.5048 59.7111 42.6078 59.2884C41.7142 58.8672 40.8555 58.4329 40.0299 57.9837C40.3498 57.9373 40.6632 57.8428 40.96 57.7035C59.8954 48.7895 63.6437 32.964 55.0679 27.6624C56.1074 27.7949 57.2031 28.095 58.3486 28.6106C68.4249 33.1447 65.2087 49.9831 45.441 59.2884Z" fill="#FC78A8"/>
<path d="M22.9765 70.7672C22.2867 70.7672 21.7278 70.2083 21.7278 69.5184C21.7278 67.4061 22.4895 66.2706 23.1016 65.3581C23.6327 64.5667 24.0521 63.9416 24.0521 62.5895C24.0521 61.2373 23.6327 60.6121 23.1016 59.8208C22.4897 58.9083 21.7278 57.7728 21.7278 55.6605C21.7278 53.5484 22.4895 52.4131 23.1016 51.5007C23.6327 50.7093 24.0521 50.0844 24.0521 48.7325C24.0521 48.0428 24.611 47.4836 25.3007 47.4836C25.9904 47.4836 26.5494 48.0426 26.5494 48.7325C26.5494 50.8446 25.7877 51.9799 25.1756 52.8923C24.6445 53.6837 24.2251 54.3086 24.2251 55.6605C24.2251 57.0127 24.6445 57.638 25.1756 58.4292C25.7875 59.3418 26.5494 60.4772 26.5494 62.5895C26.5494 64.7017 25.7877 65.8373 25.1756 66.7497C24.6445 67.5411 24.2251 68.1662 24.2251 69.5184C24.2253 70.2083 23.6662 70.7672 22.9765 70.7672V70.7672Z" fill="#FC95BB"/>
<path d="M27.5162 50.1275H22.6675C21.6805 50.1275 20.9322 49.237 21.1025 48.2647L22.2065 41.9575H27.9774L29.0813 48.2647C29.2515 49.237 28.5032 50.1275 27.5162 50.1275V50.1275Z" fill="#F8C52D"/>
<path d="M27.5167 50.1271H23.5031C24.4894 50.1271 25.2372 49.2369 25.068 48.2637L23.9639 41.9558H27.9775L29.0817 48.2637C29.2508 49.2369 28.5032 50.1271 27.5167 50.1271V50.1271Z" fill="#D6A826"/>
<path d="M41.5263 20.2194C41.5263 32.4393 34.1684 44.2519 25.092 44.2519C16.0156 44.2519 8.65753 32.4393 8.65753 20.2194C8.65753 7.99952 16.0154 0 25.0918 0C34.1683 0 41.5263 7.99952 41.5263 20.2194V20.2194Z" fill="#FEE265"/>
<path d="M41.527 20.2186C41.527 32.4399 34.168 44.2518 25.0914 44.2518C23.7602 44.2518 22.467 43.9981 21.2271 43.5256C29.7549 42.5608 36.4855 31.2478 36.4855 19.5587C36.4855 9.41292 31.4125 2.17662 24.4945 0.013125C24.6919 0.00328125 24.8907 0 25.0914 0C34.168 0 41.527 7.99887 41.527 20.2186V20.2186Z" fill="#FDD330"/>
</g>
<defs>
<clipPath id="clip0">
<rect width="84" height="84" fill="white" transform="translate(3)"/>
</clipPath>
</defs>
</svg>
