<svg width="44" height="44" viewBox="0 0 44 44" fill="none" xmlns="http://www.w3.org/2000/svg">
<g clip-path="url(#clip0)">
<path d="M8.96583 29.2482C13.3057 34.436 18.5299 38.5205 24.4926 41.4107C26.7628 42.4865 29.7988 43.763 33.1813 43.9818C33.391 43.9909 33.5916 44 33.8013 44C36.0715 44 37.895 43.2159 39.3811 41.6022C39.3902 41.593 39.4084 41.5748 39.4175 41.5566C39.9464 40.9184 40.5481 40.344 41.1772 39.7331C41.6057 39.3228 42.0433 38.8943 42.4627 38.4567C44.4047 36.4327 44.4047 33.8616 42.4445 31.9014L36.965 26.4219C36.035 25.4554 34.9227 24.9449 33.7557 24.9449C32.5887 24.9449 31.4673 25.4555 30.51 26.4128L27.246 29.6768C26.9451 29.5035 26.6351 29.3485 26.3434 29.2027C25.9787 29.0203 25.6413 28.8471 25.3405 28.6556C22.3682 26.7683 19.6695 24.3067 17.0893 21.143C15.7856 19.4927 14.9103 18.1069 14.2994 16.6937C15.1565 15.9188 15.9588 15.1073 16.7338 14.3141C17.0073 14.0315 17.2899 13.7489 17.5725 13.4662C18.5572 12.4816 19.086 11.3419 19.086 10.184C19.086 9.02611 18.5663 7.88645 17.5725 6.90178L14.8556 4.18483C14.5365 3.86573 14.2356 3.55574 13.9256 3.23663C13.3239 2.61666 12.6948 1.97845 12.0748 1.40406C11.1357 0.483216 10.0326 0 8.86554 0C7.70764 0 6.59534 0.483216 5.61979 1.41318L2.20992 4.82304C0.969973 6.06299 0.267942 7.56734 0.122066 9.30874C-0.0511625 11.4878 0.349998 13.8036 1.38937 16.6026C2.98489 20.9333 5.39185 24.954 8.96583 29.2482ZM2.34668 9.50021C2.45609 8.28761 2.92107 7.27559 3.79633 6.40033L7.18796 3.0087C7.71676 2.49814 8.30027 2.23373 8.86554 2.23373C9.42169 2.23373 9.98697 2.49814 10.5066 3.02694C11.1175 3.59221 11.6919 4.18483 12.3119 4.81392C12.6219 5.13303 12.941 5.45213 13.2601 5.78036L15.977 8.49731C16.5423 9.06258 16.834 9.63697 16.834 10.2022C16.834 10.7675 16.5423 11.3419 15.977 11.9072C15.6944 12.1898 15.4117 12.4816 15.1291 12.7642C14.2812 13.6212 13.488 14.4327 12.6127 15.2076C12.5945 15.2259 12.5854 15.235 12.5672 15.2532C11.8104 16.0099 11.9289 16.7302 12.1113 17.2772C12.1204 17.3046 12.1295 17.3228 12.1386 17.3502C12.8407 19.0369 13.8162 20.6415 15.3388 22.5562C18.074 25.9295 20.9551 28.5462 24.1279 30.5611C24.5199 30.8164 24.9393 31.017 25.3313 31.2176C25.696 31.3999 26.0334 31.5731 26.3342 31.7646C26.3707 31.7828 26.3981 31.8011 26.4345 31.8193C26.7354 31.9743 27.0272 32.0472 27.3189 32.0472C28.0483 32.0472 28.5224 31.5823 28.6774 31.4273L32.0873 28.0174C32.6161 27.4886 33.1904 27.206 33.7557 27.206C34.4486 27.206 35.0139 27.6345 35.3695 28.0174L40.8672 33.506C41.9613 34.6001 41.9522 35.7853 40.8398 36.9432C40.4569 37.3535 40.0558 37.7455 39.6273 38.1558C38.989 38.7758 38.3235 39.414 37.7217 40.1343C36.6733 41.2648 35.4242 41.7936 33.8104 41.7936C33.6554 41.7936 33.4913 41.7845 33.3363 41.7754C30.3459 41.5839 27.5651 40.4169 25.4772 39.4231C19.8063 36.6788 14.8282 32.7857 10.6981 27.8442C7.29737 23.7505 5.00893 19.9395 3.49546 15.855C2.55638 13.3477 2.20081 11.3328 2.34668 9.50021Z" fill="#1A2646"/>
</g>
<defs>
<clipPath id="clip0">
<rect width="44" height="44" fill="white"/>
</clipPath>
</defs>
</svg>
