<svg width="32" height="32" viewBox="0 0 32 32" fill="none" xmlns="http://www.w3.org/2000/svg">
<g clip-path="url(#clip0)">
<path d="M16 0C10.3124 0 5.68518 4.62724 5.68518 10.3148C5.68518 15.2807 9.21611 20.959 14.0018 22.2395L13.1869 23.0544C12.0077 24.2336 12.8442 26.2559 14.5131 26.2559H15.0624V31.0695C15.0624 32.3093 16.9378 32.3111 16.9378 31.0695V26.2559H17.4871C19.1548 26.2559 19.9932 24.2344 18.8132 23.0544L17.9983 22.2395C22.8129 20.9512 26.3149 15.2414 26.3149 10.3148C26.3149 4.62724 21.6877 0 16 0V0ZM17.487 24.3805H14.513L16 22.8935L17.487 24.3805ZM16.0001 20.6297C16.0001 20.6297 16 20.6297 15.9999 20.6297C11.3607 20.6295 7.56061 14.9822 7.56061 10.3148C7.56061 5.66135 11.3465 1.87542 16 1.87542C20.6535 1.87542 24.4394 5.66135 24.4394 10.3148C24.4394 14.9832 20.6367 20.6295 16.0001 20.6297Z" fill="#1A2646"/>
</g>
<defs>
<clipPath id="clip0">
<rect width="32" height="32" fill="white"/>
</clipPath>
</defs>
</svg>
