<svg width="44" height="44" viewBox="0 0 44 44" fill="none" xmlns="http://www.w3.org/2000/svg">
<g clip-path="url(#clip0)">
<path d="M36.5108 23.8845C35.7995 22.9862 36.003 22.5865 36.5108 21.7835C36.52 21.7743 42.3922 13.66 42.9972 10.9082L43.0008 10.9063C43.3015 9.9035 43.0008 9.1665 41.547 9.1665H36.7363C35.5117 9.1665 34.947 9.799 34.6445 10.5067C34.6445 10.5067 32.1952 16.3697 28.7302 20.1702C27.6118 21.2683 27.0948 21.6203 26.4843 21.6203C26.1837 21.6203 25.7162 21.2683 25.7162 20.2655V10.9063C25.7162 9.70367 25.3733 9.1665 24.3595 9.1665H16.7952C16.027 9.1665 15.5705 9.7275 15.5705 10.25C15.5705 11.3903 17.303 11.6525 17.4827 14.8608V21.822C17.4827 23.3473 17.2058 23.6278 16.5917 23.6278C14.9563 23.6278 10.9872 17.741 8.635 11.0035C8.16017 9.69634 7.69633 9.16834 6.4625 9.16834H1.65C0.276833 9.16834 0 9.80084 0 10.5085C0 11.7588 1.63533 17.9757 7.60467 26.189C11.583 31.7953 17.1857 34.8332 22.2823 34.8332C25.3458 34.8332 25.7198 34.1585 25.7198 32.998C25.7198 27.641 25.443 27.135 26.9775 27.135C27.6888 27.135 28.9135 27.487 31.7735 30.1912C35.0423 33.3977 35.5795 34.8332 37.4092 34.8332H42.2198C43.5912 34.8332 44.286 34.1585 43.8863 32.8275C42.9715 30.028 36.7895 24.2695 36.5108 23.8845Z" fill="#1A2646"/>
</g>
<defs>
<clipPath id="clip0">
<rect width="44" height="44" fill="white"/>
</clipPath>
</defs>
</svg>
